<svg xmlns="http://www.w3.org/2000/svg" width="900" height="420" viewBox="0 0 900 420">
<style>text { font-family: Arial, sans-serif; fill: #111827; } .label { font-size: 14px; } .title { font-size: 20px; font-weight: 700; } .value { font-size: 12px; }</style>
<text class="title" x="160" y="32">Retrieval Latency (ms) by Strategy</text>
<text class="label" x="12" y="77">fixed-128</text>
<rect x="160" y="60" width="680" height="24" fill="#e5e7eb" rx="4"/>
<rect x="160" y="60" width="680.00" height="24" fill="#d97706" rx="4"/>
<text class="value" x="848.00" y="77">0.147</text>
<text class="label" x="12" y="121">fixed-256</text>
<rect x="160" y="104" width="680" height="24" fill="#e5e7eb" rx="4"/>
<rect x="160" y="104" width="445.45" height="24" fill="#d97706" rx="4"/>
<text class="value" x="613.45" y="121">0.096</text>
<text class="label" x="12" y="165">paragraph</text>
<rect x="160" y="148" width="680" height="24" fill="#e5e7eb" rx="4"/>
<rect x="160" y="148" width="412.08" height="24" fill="#d97706" rx="4"/>
<text class="value" x="580.08" y="165">0.089</text>
<text class="label" x="12" y="209">sentence</text>
<rect x="160" y="192" width="680" height="24" fill="#e5e7eb" rx="4"/>
<rect x="160" y="192" width="384.73" height="24" fill="#d97706" rx="4"/>
<text class="value" x="552.73" y="209">0.083</text>
<text class="label" x="12" y="253">adaptive</text>
<rect x="160" y="236" width="680" height="24" fill="#e5e7eb" rx="4"/>
<rect x="160" y="236" width="401.42" height="24" fill="#d97706" rx="4"/>
<text class="value" x="569.42" y="253">0.087</text>
<text class="label" x="12" y="297">sliding-window</text>
<rect x="160" y="280" width="680" height="24" fill="#e5e7eb" rx="4"/>
<rect x="160" y="280" width="367.12" height="24" fill="#d97706" rx="4"/>
<text class="value" x="535.12" y="297">0.079</text>
</svg>