<svg xmlns="http://www.w3.org/2000/svg" width="900" height="420" viewBox="0 0 900 420">
<style>text { font-family: Arial, sans-serif; fill: #111827; } .label { font-size: 14px; } .title { font-size: 20px; font-weight: 700; } .value { font-size: 12px; }</style>
<text class="title" x="160" y="32">Recall@k by Strategy</text>
<text class="label" x="12" y="77">fixed-128</text>
<rect x="160" y="60" width="680" height="24" fill="#e5e7eb" rx="4"/>
<rect x="160" y="60" width="680.00" height="24" fill="#1f6feb" rx="4"/>
<text class="value" x="848.00" y="77">1.000</text>
<text class="label" x="12" y="121">fixed-256</text>
<rect x="160" y="104" width="680" height="24" fill="#e5e7eb" rx="4"/>
<rect x="160" y="104" width="680.00" height="24" fill="#1f6feb" rx="4"/>
<text class="value" x="848.00" y="121">1.000</text>
<text class="label" x="12" y="165">paragraph</text>
<rect x="160" y="148" width="680" height="24" fill="#e5e7eb" rx="4"/>
<rect x="160" y="148" width="680.00" height="24" fill="#1f6feb" rx="4"/>
<text class="value" x="848.00" y="165">1.000</text>
<text class="label" x="12" y="209">sentence</text>
<rect x="160" y="192" width="680" height="24" fill="#e5e7eb" rx="4"/>
<rect x="160" y="192" width="680.00" height="24" fill="#1f6feb" rx="4"/>
<text class="value" x="848.00" y="209">1.000</text>
<text class="label" x="12" y="253">adaptive</text>
<rect x="160" y="236" width="680" height="24" fill="#e5e7eb" rx="4"/>
<rect x="160" y="236" width="680.00" height="24" fill="#1f6feb" rx="4"/>
<text class="value" x="848.00" y="253">1.000</text>
<text class="label" x="12" y="297">sliding-window</text>
<rect x="160" y="280" width="680" height="24" fill="#e5e7eb" rx="4"/>
<rect x="160" y="280" width="680.00" height="24" fill="#1f6feb" rx="4"/>
<text class="value" x="848.00" y="297">1.000</text>
</svg>